<svg width="1000" height="360" viewBox="0 0 1000 360" xmlns="http://www.w3.org/2000/svg" aria-label="Dermocosmetologue logo" role="img">
  <defs>
    <linearGradient id="gold" x1="0" y1="0" x2="1000" y2="360" gradientUnits="userSpaceOnUse">
      <stop offset="0" stop-color="#FFF7B2"/>
      <stop offset="0.18" stop-color="#F9D94A"/>
      <stop offset="0.38" stop-color="#E6B81A"/>
      <stop offset="0.55" stop-color="#FFD94D"/>
      <stop offset="0.75" stop-color="#C89712"/>
      <stop offset="0.9" stop-color="#F4CF3D"/>
      <stop offset="1" stop-color="#B98500"/>
    </linearGradient>
  </defs>

  <g>
    <path d="M110 66c90-48 262-58 389-14 108 37 207 112 208 197 1 37-14 67-42 91-31 27-72 42-123 48-83 10-216 2-349-21-133-23-246-61-301-112-43-40-56-79-46-120 13-49 76-69 264-69z" fill="#050505"/>
    <path d="M135 84c95-34 242-43 353-15 92 23 187 76 210 161 7 27 3 54-12 78-21 34-58 58-109 72-93 27-220 28-351 3-137-25-246-70-290-121-30-34-36-72-20-101 20-35 77-63 219-77z" fill="#050505" opacity="0.9"/>
    <path d="M160 242c-11-27-17-56-17-92 0-58 27-112 81-147 56-36 140-50 233-43 150 13 264 67 311 142 28 45 30 92 14 125-17 35-52 59-108 76-98 31-249 35-388 10-126-23-206-38-126-71z" fill="none" stroke="url(#gold)" stroke-width="9"/>

    <text x="126" y="210" fill="url(#gold)" font-size="250" font-family="Georgia, 'Times New Roman', serif" font-style="italic" font-weight="800">D</text>
    <text x="265" y="196" fill="url(#gold)" font-size="118" font-family="Georgia, 'Times New Roman', serif" font-style="italic" font-weight="800">ermo</text>
    <text x="290" y="262" fill="url(#gold)" font-size="60" font-family="Georgia, 'Times New Roman', serif" font-style="italic" font-weight="700">Cosmétologue</text>
    <text x="210" y="304" fill="url(#gold)" font-size="25" font-family="Georgia, 'Times New Roman', serif" font-style="italic" letter-spacing="0.3" font-weight="700">La sélection de tous vos besoins en cosmétique</text>
  </g>
</svg>
